<?xml version="1.0" encoding="utf-8"?>
<!-- Generator: Adobe Illustrator 23.0.5, SVG Export Plug-In . SVG Version: 6.00 Build 0)  -->
<svg version="1.1" id="Layer_1" xmlns="http://www.w3.org/2000/svg" xmlns:xlink="http://www.w3.org/1999/xlink" x="0px" y="0px"
	 viewBox="0 0 1630 731" style="enable-background:new 0 0 1630 731;" xml:space="preserve">
<style type="text/css">
	.st0{fill:#EDDA80;}
	.st1{fill:#E4E1AE;}
</style>
<g>
	<g>
		<path class="st0" d="M3380.8,432.6c0,238.6-903.7,432-2018.4,432c-1114.7,0-2018.4-193.4-2018.4-432S247.6,0.6,1362.3,0.6
			C2477.1,0.6,3380.8,194,3380.8,432.6L3380.8,432.6z"/>
	</g>
	<g>
		<path class="st1" d="M0,138.4v-37.9c185.5-32.2,388.9-56.1,617.8-73.3C853,9.5,1103.3,0.6,1361.8,0.6c89.9,0,180.5,1.1,269.1,3.4
			l-1.2,44.6c-88.2-2.2-178.3-3.4-267.9-3.4C849.6,45.2,377.8,72.8,0,138.4L0,138.4z"/>
	</g>
</g>
</svg>
